<?xml version="1.0" encoding="iso-8859-1"?>
<!-- Uploaded to: SVG Repo, www.svgrepo.com, Generator: SVG Repo Mixer Tools -->
<svg fill="#000000" height="800px" width="800px" version="1.1" id="Capa_1" xmlns="http://www.w3.org/2000/svg" xmlns:xlink="http://www.w3.org/1999/xlink" 
	 viewBox="0 0 297 297" xml:space="preserve">
<g>
	<path d="M198.678,246.421c-0.718-8.271-2.922-19.931-9.212-30.626l-10.548,6.835C185.347,235.68,192.194,243.892,198.678,246.421z"
		/>
	<path d="M247.5,20c0-11.046-8.954-20-20-20h-158c-11.046,0-20,8.954-20,20v257c0,11.046,8.954,20,20,20h158
		c11.046,0,20-8.954,20-20V20z M214.878,259.276c0,6.628-5.372,12.001-11.999,12.001c-17.154,0.001-32.013-11.944-44.223-35.519
		l-10.772,6.98c-3.709,2.404-8.661,1.344-11.064-2.363c-2.402-3.708-1.345-8.662,2.363-11.065l16.239-10.522
		c-6.204-14.93-11.631-32.247-16.723-50.398l-40.033,98.493c-1.261,3.101-4.25,4.989-7.413,4.989c-0.952,0-1.921-0.171-2.862-0.532
		c-4.067-1.559-6.14-6.087-4.661-10.184c0.121-0.339,12.363-35.207,4.93-71.858c-0.314-1.551-0.633-3.103-0.952-4.654
		c-5.089-24.751-10.351-50.344,3.92-67.888c2.789-3.427,7.826-3.945,11.255-1.157c3.427,2.788,3.945,7.827,1.157,11.255
		c-9.482,11.656-5.197,32.5-0.66,54.567c0.322,1.565,0.645,3.132,0.962,4.697c1.265,6.236,2.031,12.393,2.421,18.356l25.048-61.625
		c-0.895-3.41-1.786-6.824-2.676-10.232c-4.642-17.785-9.098-34.844-13.685-49.354c-3.206-1.4-5.776-4.182-6.775-7.817
		c-2.611-9.504-11.52-23.745-20.127-28.987c-5.66-3.447-7.455-10.83-4.008-16.49c3.447-5.661,10.829-7.457,16.49-4.008
		c14.771,8.995,26.887,28.933,30.787,43.126c0.878,3.193,0.378,6.44-1.139,9.109c4.583,14.542,9.042,31.622,13.938,50.382
		c0.725,2.778,1.453,5.566,2.185,8.355c7.378-1.505,18.769-6.441,24.116-22.36c3.744-11.146,5.079-22.486,6.37-33.453
		c2.445-20.78,4.974-42.268,25.29-55.78c3.681-2.448,8.645-1.447,11.092,2.23c2.447,3.679,1.448,8.645-2.23,11.092
		c-14.152,9.413-15.966,24.821-18.262,44.328c-1.321,11.229-2.819,23.958-7.092,36.679c-6.306,18.768-18.782,27.006-28.14,30.61
		c-2.474,0.953-4.851,1.634-7.042,2.12c5.557,20.6,11.442,40.658,18.194,57.529l24.359-15.784l4.51,5.761
		c18.712,23.899,17.213,54.148,16.874,58.624C214.855,258.777,214.878,259.023,214.878,259.276z"/>
</g>
</svg>