<?xml version="1.0" encoding="iso-8859-1"?>
<!-- Uploaded to: SVG Repo, www.svgrepo.com, Generator: SVG Repo Mixer Tools -->
<svg fill="#000000" height="800px" width="800px" version="1.1" id="Capa_1" xmlns="http://www.w3.org/2000/svg" xmlns:xlink="http://www.w3.org/1999/xlink" 
	 viewBox="0 0 297 297" xml:space="preserve">
<g>
	<path d="M247.5,20c0-11.046-8.954-20-20-20h-158c-11.046,0-20,8.954-20,20v257c0,11.046,8.954,20,20,20h158
		c11.046,0,20-8.954,20-20V20z M210.833,128h-3.955c-3.103,10.079-4.682,23.627-11.913,35.204
		c-4.764,7.623-22.464,23.027-34.464,33.211V223h12.333c4.418,0,8,3.582,8,8c0,3.014-1.668,5.636-4.13,7h4.13
		c9.112,0,16.5,7.388,16.5,16.5c0,0.169-0.02,0.332-0.025,0.5H214.5v16h-132v-16h16.858c-0.005-0.168-0.025-0.331-0.025-0.5
		c0-9.112,7.388-16.5,16.5-16.5h4.13c-2.462-1.364-4.13-3.986-4.13-7c0-4.418,3.582-8,8-8H136.5v-26.604
		c-12-10.185-29.296-25.572-34.057-33.192C95.21,151.627,93.995,138.079,90.914,128h-5.081c-6.627,0-12-5.373-12-12s5.373-12,12-12
		h13.345l41.968-58.041c-2.634-2.201-4.313-5.51-4.313-9.211c0-6.627,5.372-12,12-12s12,5.373,12,12c0,3.734-1.707,7.07-4.383,9.271
		L198.467,104h12.366c6.627,0,12,5.373,12,12S217.46,128,210.833,128z"/>
</g>
</svg>