<?xml version="1.0" encoding="iso-8859-1"?>
<!-- Uploaded to: SVG Repo, www.svgrepo.com, Generator: SVG Repo Mixer Tools -->
<svg fill="#000000" height="800px" width="800px" version="1.1" id="Capa_1" xmlns="http://www.w3.org/2000/svg" xmlns:xlink="http://www.w3.org/1999/xlink" 
	 viewBox="0 0 297 297" xml:space="preserve">
<g>
	<path d="M247.5,20c0-11.046-8.954-20-20-20h-158c-11.046,0-20,8.954-20,20v257c0,11.046,8.954,20,20,20h158
		c11.046,0,20-8.954,20-20V20z M206.555,197.797c-1.337,2.956-4.248,4.705-7.294,4.705c-1.103,0-2.222-0.229-3.292-0.713
		l-11.779-5.328c4.226,14.857,9.431,31.031,16.076,48.855l-9.861,25.944c-19.046-51.083-37.148-85.818-52.73-113.312l-3.441,8.396
		c-1.269,3.096-4.255,4.969-7.405,4.969c-1.011,0-2.038-0.192-3.03-0.6c-4.089-1.675-6.045-6.348-4.369-10.436l2.65-6.469
		l-8.174-3.891c-3.989-1.899-5.684-6.673-3.785-10.662c1.899-3.99,6.67-5.686,10.662-3.785l5.415,2.578
		c-11.578-19.896-21.21-36.521-28.034-54.824c-9.607-25.768-11.068-49.013,9.611-56.723c20.68-7.711,34.794,10.817,44.401,36.584
		c0.98,2.63,1.897,5.264,2.765,7.904l4.599-11.88c1.595-4.119,6.229-6.167,10.349-4.573c4.12,1.596,6.168,6.229,4.573,10.349
		l-3.268,8.442l6.37,2.881c4.025,1.82,5.814,6.561,3.992,10.586c-1.337,2.956-4.248,4.705-7.294,4.705
		c-1.103,0-2.222-0.229-3.292-0.713l-11.767-5.322c7.229,27.407,10.892,57.036,20.934,96.023l4.403-11.377
		c1.596-4.12,6.228-6.167,10.349-4.573c4.12,1.596,6.168,6.229,4.573,10.349l-3.268,8.442l6.37,2.881
		C206.588,189.031,208.376,193.771,206.555,197.797z"/>
</g>
</svg>