<?xml version="1.0" standalone="no"?>
<!DOCTYPE svg PUBLIC "-//W3C//DTD SVG 20010904//EN"
 "http://www.w3.org/TR/2001/REC-SVG-20010904/DTD/svg10.dtd">
<svg version="1.0" xmlns="http://www.w3.org/2000/svg"
 width="512.000000pt" height="512.000000pt" viewBox="0 0 512.000000 512.000000"
 preserveAspectRatio="xMidYMid meet">

<g transform="translate(0.000000,512.000000) scale(0.100000,-0.100000)"
fill="#000000" stroke="none">
<path d="M1117 5109 c-133 -31 -234 -144 -257 -285 -13 -80 -13 -4448 0 -4528
19 -118 91 -214 198 -264 l57 -27 1445 0 1445 0 57 27 c107 50 179 146 198
264 13 80 13 4448 0 4528 -19 118 -91 214 -198 264 l-57 27 -1425 2 c-811 0
-1441 -3 -1463 -8z m1634 -563 c315 -42 598 -168 877 -390 l63 -50 -134 -134
-135 -134 -98 70 c-418 300 -863 351 -1289 147 -95 -46 -221 -124 -293 -183
l-44 -35 -134 134 -135 134 38 34 c82 72 236 174 354 234 309 157 617 214 930
173z m-41 -1096 c4 0 45 20 90 46 45 25 84 43 86 41 2 -2 22 -42 44 -90 22
-48 44 -87 49 -87 5 0 46 7 91 16 45 8 88 13 95 10 7 -2 15 -34 19 -78 12
-123 4 -114 117 -128 l99 -12 -6 -37 c-3 -20 -12 -65 -19 -99 l-13 -64 93 -45
93 -45 -49 -88 -49 -88 73 -71 72 -71 -72 -71 -73 -71 49 -88 49 -88 -93 -45
-93 -45 13 -64 c7 -34 16 -79 19 -99 l6 -37 -99 -12 c-113 -14 -105 -5 -117
-128 -4 -44 -12 -76 -19 -78 -7 -3 -50 2 -95 10 -45 9 -86 16 -91 16 -5 0 -27
-39 -49 -87 -22 -48 -42 -88 -44 -90 -2 -2 -41 16 -86 41 -45 26 -85 46 -88
46 -4 0 -39 -32 -78 -71 l-71 -70 -65 70 c-36 39 -70 71 -76 71 -5 0 -47 -21
-92 -46 -45 -25 -83 -44 -84 -42 -2 1 -22 42 -44 91 -22 48 -44 87 -47 87 -4
0 -48 -7 -97 -16 -72 -14 -92 -14 -98 -4 -4 7 -11 44 -14 84 -11 109 -4 102
-117 116 l-100 12 6 27 c3 14 11 59 19 99 l14 73 -89 45 c-49 24 -89 47 -89
50 0 3 21 44 46 90 l46 84 -74 70 -73 70 73 70 74 70 -46 84 c-25 46 -46 87
-46 90 0 3 40 26 89 50 l89 45 -14 73 c-8 40 -16 85 -19 99 l-6 27 100 12
c113 14 106 7 117 116 3 40 10 77 14 84 6 10 26 10 98 -4 49 -9 93 -16 97 -16
3 0 25 39 47 88 22 48 42 89 44 90 1 2 39 -17 84 -42 45 -25 87 -46 92 -46 6
0 40 32 76 71 l66 71 69 -71 c38 -39 73 -71 77 -71z m-37 -2240 c29 -11 77
-40 106 -65 l53 -45 434 0 434 0 -2 -187 -3 -188 -426 -3 -425 -2 -56 -54
c-65 -63 -125 -86 -223 -86 -99 0 -160 23 -222 86 l-54 54 -432 2 -432 3 -3
188 -2 187 443 0 c439 0 444 0 463 21 27 30 92 73 139 92 56 22 143 21 208 -3z"/>
<path d="M2207 3246 c-91 -33 -110 -74 -115 -246 l-4 -135 -44 -88 c-56 -108
-55 -131 2 -135 l41 -3 6 -74 c7 -91 29 -139 80 -173 33 -22 53 -27 128 -30
l89 -4 0 -119 0 -119 -55 0 c-87 0 -157 -38 -191 -102 -8 -15 -14 -56 -14 -93
l0 -65 370 0 370 0 0 83 0 83 51 13 c102 26 171 120 171 232 0 100 -62 191
-150 220 l-33 11 43 27 c130 83 202 239 179 387 -27 174 -149 301 -321 334
-82 16 -556 12 -603 -4z"/>
</g>
</svg>
