<?xml version="1.0" standalone="no"?>
<!DOCTYPE svg PUBLIC "-//W3C//DTD SVG 20010904//EN"
 "http://www.w3.org/TR/2001/REC-SVG-20010904/DTD/svg10.dtd">
<svg version="1.0" xmlns="http://www.w3.org/2000/svg"
 width="512.000000pt" height="512.000000pt" viewBox="0 0 512.000000 512.000000"
 preserveAspectRatio="xMidYMid meet">

<g transform="translate(0.000000,512.000000) scale(0.100000,-0.100000)"
fill="#000000" stroke="none">
<path d="M2388 5104 c-343 -62 -629 -301 -752 -628 -44 -117 -59 -209 -59
-367 1 -320 44 -521 283 -1339 285 -974 395 -1636 418 -2522 l7 -247 310 205
310 204 12 278 c31 721 122 1245 364 2088 203 712 261 1002 262 1329 0 163
-14 252 -59 371 -167 446 -632 712 -1096 628z"/>
</g>
</svg>
