<?xml version="1.0" encoding="iso-8859-1"?>
<!-- Uploaded to: SVG Repo, www.svgrepo.com, Generator: SVG Repo Mixer Tools -->
<svg fill="#000000" height="800px" width="800px" version="1.1" id="Capa_1" xmlns="http://www.w3.org/2000/svg" xmlns:xlink="http://www.w3.org/1999/xlink" 
	 viewBox="0 0 297.667 297.667" xml:space="preserve">
<path d="M240.833,69.667H228.69c-10.573-27.002-34.43-47.329-63.541-52.939c0.003-0.132,0.02-0.262,0.02-0.395
	C165.169,7.313,157.856,0,148.835,0c-9.021,0-16.333,7.313-16.333,16.333c0,0.133,0.017,0.262,0.02,0.395
	c-29.113,5.608-52.971,25.937-63.544,52.939H56.833c-6.627,0-12,5.373-12,12s5.373,12,12,12h12.535
	c5.904,12.461,6.626,32.011,17.799,48.334c8.713,12.729,25.708,24.084,50.469,26.745c-14.216,17.179-35.817,51.134-36.328,78.921
	H81.501v18h-16v32h165v-32h-16v-18h-18.142c-0.511-27.787-22.112-61.742-36.328-78.921c24.761-2.661,41.756-14.016,50.469-26.745
	c11.173-16.323,11.895-35.873,17.799-48.334h12.535c6.627,0,12-5.373,12-12S247.46,69.667,240.833,69.667z"/>
</svg>