<?xml version="1.0" encoding="iso-8859-1"?>
<!-- Uploaded to: SVG Repo, www.svgrepo.com, Generator: SVG Repo Mixer Tools -->
<svg fill="#000000" height="800px" width="800px" version="1.1" id="Capa_1" xmlns="http://www.w3.org/2000/svg" xmlns:xlink="http://www.w3.org/1999/xlink" 
	 viewBox="0 0 300.363 300.363" xml:space="preserve">
<g>
	<path d="M285.213,167.97l15.15-17.788l-15.151-17.788l10.069-21.088l-19.248-13.249l4.228-22.98l-22.029-7.795l-1.856-23.294
		l-23.293-1.854l-7.795-22.03l-22.981,4.227l-13.25-19.248L167.969,15.15L150.181,0l-17.788,15.15L111.305,5.082L98.057,24.33
		l-22.981-4.227l-7.794,22.029l-23.294,1.854l-1.855,23.295l-22.029,7.794l4.227,22.981L5.082,111.306l10.068,21.088L0,150.182
		l15.15,17.788L5.082,189.058l19.248,13.249l-4.229,22.98l22.029,7.795l1.857,23.293l23.293,1.855l7.794,22.029l22.981-4.227
		l13.249,19.248l21.088-10.068l17.788,15.15l17.788-15.15l21.088,10.068l13.249-19.248l22.98,4.228l7.795-22.029l23.293-1.855
		l1.856-23.294l22.03-7.794l-4.228-22.981l19.248-13.249L285.213,167.97z M150.181,266.333c-64.146,0-116.15-52.003-116.15-116.151
		S86.034,34.03,150.181,34.03c64.149,0,116.152,52.003,116.152,116.151S214.33,266.333,150.181,266.333z"/>
	<path d="M68.917,189.319c-0.01-0.021-0.02-0.042-0.02-0.042c-0.009-0.071-0.048-0.153-0.077-0.215
		c-0.029-0.063-0.059-0.124-0.118-0.196c-0.01-0.02-0.02-0.041-0.02-0.041c-0.05-0.053-0.09-0.084-0.119-0.146
		c-0.03-0.011-0.03-0.011-0.04-0.031c-0.05-0.052-0.142-0.084-0.182-0.116c-0.04-0.031-0.04-0.031-0.04-0.031
		c-0.06-0.021-0.101-0.053-0.161-0.074c-0.031-0.011-0.031-0.011-0.082-0.012c-0.051-0.001-0.121-0.044-0.172-0.045
		c-0.01-0.021-0.01-0.021-0.03-0.011c-0.062-0.021-0.153-0.003-0.204-0.004l-14.437,0.628c-0.663,0.038-1.215,0.628-1.168,1.312
		c0.018,0.674,0.608,1.226,1.302,1.199l11.438-0.515l-7.623,8.542c-0.459,0.521-0.414,1.307,0.098,1.745
		c0.51,0.489,1.316,0.434,1.755-0.077l9.625-10.755c0.021-0.061,0.084-0.141,0.115-0.181c0.021-0.01,0.011-0.031,0.011-0.031
		c0.031-0.04,0.053-0.101,0.075-0.161c0.041-0.019,0.031-0.04,0.052-0.05c0.012-0.081,0.013-0.133,0.034-0.193
		c-0.01-0.02-0.01-0.02-0.01-0.02c0.012-0.081,0.034-0.192,0.035-0.244c-0.01-0.02-0.01-0.02-0.01-0.02s-0.01-0.021,0.011-0.03
		C68.935,189.462,68.916,189.37,68.917,189.319z"/>
	<path d="M64.649,179.419c0.007-0.143-0.008-0.281-0.051-0.436c-0.135-0.482-0.549-0.864-1.087-0.928l-3.154-0.28l-1.486-5.335
		l2.555-1.872c0.434-0.31,0.591-0.851,0.456-1.334c-0.043-0.153-0.107-0.301-0.183-0.398c-0.419-0.569-1.207-0.682-1.782-0.284
		l-11.581,8.456c-0.428,0.333-0.606,0.88-0.444,1.378c0.113,0.489,0.555,0.887,1.093,0.95l14.285,1.248
		C63.968,180.627,64.585,180.123,64.649,179.419z M52.481,177.107l4.225-3.094l0.991,3.557L52.481,177.107z"/>
	<path d="M60.663,161.602c-0.059-0.704-0.675-1.225-1.356-1.167l-4.931,0.414l-0.225-2.681c0.028-0.209,0.16-0.814,0.439-1.318
		c0.158-0.288,0.363-0.58,0.602-0.737c0.236-0.18,0.524-0.296,0.954-0.355c1.249-0.104,2.054-0.333,2.687-0.706
		c0.303-0.208,0.577-0.483,0.733-0.794c0.179-0.335,0.195-0.68,0.176-0.907c-0.002-0.022-0.002-0.022-0.002-0.022
		c-0.019-0.228-0.079-0.405-0.11-0.494c-0.282-0.64-1.017-0.944-1.656-0.662c-0.375,0.169-0.623,0.487-0.706,0.86
		c-0.224,0.064-0.65,0.169-1.333,0.204c-0.954,0.08-1.771,0.445-2.391,0.955c-0.322,0.256-0.571,0.552-0.774,0.866
		c-1-1.015-2.375-1.586-3.875-1.46c-2.703,0.228-4.703,2.569-4.477,5.273l0.34,4.044c0.002,0.023,0.002,0.023,0.002,0.023
		c0.059,0.704,0.65,1.203,1.354,1.145l13.405-1.125C60.2,162.899,60.722,162.307,60.663,161.602z M47.174,161.453l-0.234-2.795
		c-0.109-1.295,0.849-2.428,2.166-2.538c1.272-0.107,2.405,0.851,2.514,2.145l0.235,2.795L47.174,161.453z"/>
	<path d="M45.469,144.61l13.423,0.828c0.705,0.044,1.285-0.469,1.329-1.174c0.042-0.683-0.468-1.308-1.173-1.352l-13.423-0.828
		c-0.706-0.044-1.288,0.515-1.33,1.196C44.251,143.987,44.764,144.566,45.469,144.61z"/>
	<path d="M52.661,134.941c2.195,0.526,4.365,0.181,6.137-0.848c1.766-1.007,3.165-2.734,3.677-4.862
		c0.49-2.04,0.027-4.215-1.1-5.869c-1.111-1.721-2.877-3.06-5.071-3.586c-2.195-0.527-4.354-0.132-6.147,0.892
		c-1.777,0.957-3.155,2.689-3.645,4.729c-0.512,2.128-0.071,4.298,1.067,6.001C48.712,133.125,50.466,134.414,52.661,134.941z
		 M49.039,126.004c0.319-1.33,1.194-2.434,2.415-3.125c1.194-0.675,2.734-0.938,4.242-0.575c1.508,0.362,2.761,1.296,3.496,2.434
		c0.774,1.171,1.074,2.557,0.755,3.887c-0.341,1.419-1.238,2.517-2.459,3.208c-1.178,0.702-2.713,0.943-4.22,0.581
		c-1.508-0.361-2.767-1.273-3.519-2.439C48.977,128.803,48.698,127.423,49.039,126.004z"/>
	<path d="M67.58,102.759c-0.636-0.311-1.34-0.426-1.981-0.358c-0.988,0.102-1.881,0.58-2.7,1.22c-0.79,0.63-1.525,1.464-2.24,2.408
		l-0.021,0.041c-0.744,1.007-1.521,1.77-2.15,2.122c-0.315,0.177-0.589,0.271-0.803,0.294c-0.214,0.022-0.398-0.017-0.644-0.137
		c-0.431-0.21-0.771-0.655-0.912-1.408c-0.14-0.754-0.026-1.713,0.423-2.635c0.61-1.251,1.715-1.955,2.921-2.66
		c0.567-0.332,0.744-1.058,0.402-1.604c-0.312-0.559-1.037-0.734-1.595-0.423c-1.187,0.715-2.859,1.7-3.818,3.668
		c-0.649,1.332-0.87,2.771-0.644,4.074c0.237,1.283,0.963,2.499,2.192,3.099c0.615,0.3,1.269,0.416,1.911,0.349
		c0.937-0.102,1.779-0.527,2.527-1.126c0.749-0.6,1.435-1.381,2.089-2.254l0.02-0.041c0.815-1.1,1.653-1.934,2.333-2.338
		c0.354-0.207,0.649-0.292,0.914-0.315c0.265-0.022,0.479,0.006,0.746,0.136c0.512,0.25,0.895,0.767,1.046,1.601
		c0.15,0.835,0.008,1.907-0.491,2.932c-0.689,1.465-2.31,2.603-3.487,3.145c-0.589,0.271-0.856,0.978-0.586,1.565
		c0.281,0.568,0.987,0.837,1.576,0.566c1.491-0.719,3.508-2.044,4.607-4.247c0.71-1.455,0.929-2.997,0.681-4.36
		C69.659,104.686,68.892,103.398,67.58,102.759z"/>
	<path d="M224.325,98.797c0.384,0.594,1.172,0.763,1.746,0.392l4.155-2.686l1.522,2.355c1.473,2.279,4.499,2.93,6.739,1.481
		c2.279-1.473,2.93-4.499,1.457-6.777l-2.203-3.409l-0.013-0.019c-0.371-0.575-1.14-0.757-1.733-0.373l-11.299,7.301
		C224.123,97.435,223.954,98.223,224.325,98.797z M236.297,92.58l1.523,2.355c0.718,1.111,0.394,2.542-0.704,3.278
		c-1.085,0.675-2.523,0.382-3.241-0.729l-1.521-2.355L236.297,92.58z"/>
	<path d="M232.05,112.196c0.27,0.652,1.014,0.961,1.645,0.699l4.569-1.891l1.028,2.485c0.036,0.207,0.095,0.824-0.017,1.388
		c-0.064,0.322-0.17,0.662-0.349,0.885c-0.171,0.243-0.41,0.44-0.802,0.627c-1.158,0.479-1.855,0.94-2.344,1.488
		c-0.225,0.29-0.402,0.635-0.458,0.979c-0.067,0.373,0.021,0.706,0.108,0.917c0.009,0.021,0.009,0.021,0.009,0.021
		c0.087,0.21,0.199,0.361,0.255,0.437c0.463,0.523,1.255,0.591,1.778,0.127c0.306-0.274,0.445-0.652,0.411-1.033
		c0.193-0.129,0.567-0.358,1.208-0.598c0.884-0.366,1.55-0.962,1.986-1.636c0.229-0.342,0.377-0.699,0.475-1.06
		c1.26,0.662,2.743,0.788,4.133,0.214c2.506-1.037,3.699-3.874,2.662-6.38l-1.551-3.748c-0.009-0.021-0.009-0.021-0.009-0.021
		c-0.27-0.652-0.984-0.949-1.637-0.679l-12.424,5.141C232.097,110.82,231.779,111.543,232.05,112.196z M244.94,108.243l1.071,2.59
		c0.497,1.2-0.071,2.57-1.293,3.075c-1.179,0.488-2.548-0.08-3.045-1.28l-1.071-2.59L244.94,108.243z"/>
	<path d="M237.711,128.293l0.027,0.018c0,0-0.022,0.004-0.013,0.049l1.532,7.223c0.138,0.646,0.817,1.108,1.486,0.967
		c0.691-0.147,1.125-0.845,0.988-1.491l-1.282-6.042l4.103-0.87l1.102,5.194c0.143,0.669,0.817,1.108,1.509,0.961
		c0.646-0.137,1.108-0.817,0.966-1.486l-1.102-5.194l4.079-0.865l1.282,6.042c0.137,0.646,0.817,1.107,1.509,0.961
		c0.691-0.146,1.103-0.84,0.966-1.486l-1.533-7.223c-0.009-0.045-0.009-0.045-0.009-0.045l-0.005-0.022
		c-0.146-0.691-0.795-1.112-1.486-0.966l-13.153,2.791C238.008,126.948,237.564,127.602,237.711,128.293z"/>
	<path d="M240.232,143.968c0.011,0.706,0.59,1.268,1.274,1.256l9.597-0.154l-4.626,3.334c-0.338,0.256-0.628,0.646-0.628,1.057
		v0.023v0.023c0,0.41,0.316,0.771,0.662,1.018l4.673,3.209l-9.568,0.154c-0.684,0.011-1.23,0.567-1.218,1.273
		c0.011,0.685,0.597,1.268,1.282,1.257l13.193-0.216c0.684-0.011,0.976-0.612,0.976-1.297c0-0.022,0-0.022,0-0.022
		c0-0.411,0.066-0.773-0.281-1.018l-6.234-4.436l6.113-4.638c0.338-0.233,0.402-0.646,0.402-1.012c0-0.045,0-0.045,0-0.068
		c0-0.684-0.419-1.244-1.103-1.233l-13.365,0.216C240.697,142.704,240.221,143.283,240.232,143.968z"/>
	<path d="M253.67,167.124l-13.252-2.278c-0.696-0.119-1.328,0.327-1.447,1.023c-0.116,0.674,0.322,1.351,1.018,1.47l13.252,2.278
		c0.696,0.119,1.336-0.372,1.452-1.046C254.813,167.875,254.366,167.243,253.67,167.124z"/>
	<path d="M245.467,175.954c-2.124-0.765-4.319-0.658-6.192,0.171c-1.865,0.807-3.446,2.37-4.188,4.43
		c-0.71,1.974-0.488,4.186,0.45,5.953c0.916,1.832,2.524,3.356,4.648,4.121c2.124,0.764,4.313,0.606,6.207-0.214
		c1.872-0.756,3.431-2.327,4.142-4.302c0.741-2.06,0.541-4.264-0.404-6.082C249.192,178.191,247.591,176.719,245.467,175.954z
		 M248.088,185.233c-0.463,1.287-1.453,2.288-2.743,2.842c-1.261,0.54-2.82,0.633-4.279,0.107c-1.459-0.524-2.602-1.591-3.208-2.802
		c-0.641-1.249-0.788-2.659-0.324-3.946c0.494-1.373,1.505-2.366,2.795-2.919c1.247-0.569,2.799-0.641,4.258-0.116
		c1.459,0.525,2.61,1.569,3.229,2.811C248.457,182.458,248.582,183.86,248.088,185.233z"/>
	<path d="M239.449,199.926c-0.578-0.365-1.215-0.552-1.86-0.555c-0.942-0.003-1.826,0.329-2.636,0.842
		c-0.81,0.514-1.576,1.215-2.322,2.012l-0.024,0.038c-0.931,1.003-1.854,1.74-2.574,2.068c-0.375,0.167-0.678,0.219-0.943,0.213
		c-0.266-0.007-0.476-0.059-0.727-0.217c-0.482-0.304-0.805-0.859-0.863-1.705c-0.059-0.846,0.2-1.895,0.809-2.859
		c0.846-1.381,2.58-2.334,3.809-2.743c0.615-0.205,0.959-0.878,0.754-1.492c-0.217-0.596-0.889-0.939-1.504-0.735
		c-1.561,0.551-3.71,1.647-5.044,3.717c-0.865,1.368-1.252,2.876-1.154,4.259c0.085,1.402,0.706,2.766,1.939,3.545
		c0.598,0.377,1.285,0.569,1.931,0.572c0.993,0.008,1.933-0.37,2.817-0.916c0.852-0.54,1.676-1.287,2.489-2.148l0.024-0.038
		c0.851-0.919,1.707-1.592,2.37-1.874c0.332-0.141,0.615-0.204,0.83-0.203c0.215,0.001,0.394,0.06,0.625,0.206
		c0.404,0.256,0.694,0.735,0.751,1.499c0.057,0.764-0.16,1.705-0.708,2.572c-0.743,1.176-1.918,1.755-3.194,2.324
		c-0.601,0.268-0.855,0.969-0.575,1.551c0.248,0.588,0.95,0.843,1.539,0.595c1.257-0.581,3.026-1.377,4.196-3.228
		c0.791-1.253,1.168-2.659,1.085-3.979C241.193,201.945,240.605,200.656,239.449,199.926z"/>
	<path d="M212.339,117.162c0-23.904-19.033-42.98-42.576-42.98h-51.757c-10.305,0-20.157,7.01-20.157,17.313v24.001l-9.469,19.235
		c-1.839,3.56,0.402,6.451,4.416,6.451h5.053v11.381c0,10.307,9.853,16.619,20.157,16.619h14.843v27H122.48
		c-10.224,0-18.632,8.546-18.632,18.763v12.237h80V207.13c15-1.168,24.182-12.299,24.182-25.885
		c0-12.684-8.687-23.233-20.704-25.524C201.817,148.617,212.339,134.388,212.339,117.162z"/>
</g>
</svg>