<?xml version="1.0" encoding="iso-8859-1"?>
<!-- Uploaded to: SVG Repo, www.svgrepo.com, Generator: SVG Repo Mixer Tools -->
<svg fill="#000000" height="800px" width="800px" version="1.1" id="Capa_1" xmlns="http://www.w3.org/2000/svg" xmlns:xlink="http://www.w3.org/1999/xlink" 
	 viewBox="0 0 296.446 296.446" xml:space="preserve">
<path d="M194.723,198.446c-4.643,0-8.746,2.27-11.293,5.75h-27.432l23.223-23L147.723,0l-31.498,181.196l23.223,23h-26.432
	c-2.547-3.48-6.65-5.75-11.293-5.75c-7.731,0-14,6.269-14,14s6.269,14,14,14c4.864,0,9.146-2.484,11.655-6.25h15.383
	c0.285,7.308,4.629,13.544,10.629,16.466v12.305c-3,2.53-5.833,6.725-5.833,11.479c0,4.467,2.184,8.437,5.442,11
	c-3.258,2.564-5.317,6.533-5.317,11c0,7.731,6.289,14,14.021,14s14.01-6.269,14.01-14c0-4.467-2.095-8.436-5.353-11
	c3.258-2.563,5.195-6.533,5.195-11c0-4.755-2.164-8.949-6.164-11.479v-12.305c7-2.922,11.01-9.158,11.295-16.466h16.383
	c2.509,3.766,6.791,6.25,11.655,6.25c7.731,0,14-6.269,14-14S202.455,198.446,194.723,198.446z"/>
</svg>